PathFileType	4	(X/Y/Z)	E:/New_biomech_experiments/Elbow Flexion/Shreyas_25_06_24_elbow_flexion/Session 2024-06-26/Shreyas_ElbFlex_pp_staticPose.trc	
DataRate	CameraRate	NumFrames	NumMarkers	Units	OrigDataRate	OrigDataStartFrame	OrigNumFrames	
120.00	120.00	16	19	m	120.00	584	778	
Frame#	Time	MarkerSet_LFHD			MarkerSet_LBHD			MarkerSet_C7			MarkerSet_RBHD			MarkerSet_PRSHO			MarkerSet_RSHO			MarkerSet_STRN			MarkerSet_RFHD			MarkerSet_CLAV			MarkerSet_RWRA			MarkerSet_RWRB			MarkerSet_ARSHO			MarkerSet_RFRM			MarkerSet_RELB			MarkerSet_RUPA			MarkerSet_MRHAND			MarkerSet_T10			MarkerSet_RHAND			MarkerSet_MRELB			
		X1	Y1	Z1	X2	Y2	Z2	X3	Y3	Z3	X4	Y4	Z4	X5	Y5	Z5	X6	Y6	Z6	X7	Y7	Z7	X8	Y8	Z8	X9	Y9	Z9	X10	Y10	Z10	X11	Y11	Z11	X12	Y12	Z12	X13	Y13	Z13	X14	Y14	Z14	X15	Y15	Z15	X16	Y16	Z16	X17	Y17	Z17	X18	Y18	Z18	X19	Y19	Z19	

584	4.858	0.06474	1.83888	-0.03753	-0.04000	1.73727	-0.05915	-0.06888	1.54521	0.00182	-0.05630	1.75511	0.07753	-0.09492	1.44779	0.13140	0.02409	1.50051	0.21274	0.16670	1.34388	-0.00077	0.04627	1.82194	0.08906	0.12762	1.46739	0.00669	0.27169	1.19005	0.15633	0.29106	1.16566	0.25157	0.10754	1.45710	0.11795	0.16452	1.18311	0.26266	0.03064	1.18795	0.28251	0.02418	1.30678	0.25978	0.38363	1.14933	0.25652	-0.09106	1.33445	-0.00828	0.41036	1.18831	0.14191	0.02008	1.13644	0.17379 
585	4.867	0.06472	1.83889	-0.03744	-0.04001	1.73726	-0.05908	-0.06888	1.54522	0.00189	-0.05632	1.75509	0.07760	-0.09492	1.44780	0.13149	0.02410	1.50051	0.21282	0.16670	1.34388	-0.00070	0.04625	1.82191	0.08915	0.12761	1.46737	0.00673	0.27169	1.19005	0.15639	0.29106	1.16565	0.25163	0.10755	1.45711	0.11802	0.16452	1.18310	0.26271	0.03064	1.18796	0.28257	0.02419	1.30679	0.25986	0.38363	1.14932	0.25659	-0.09107	1.33446	-0.00819	0.41036	1.18829	0.14197	0.02009	1.13645	0.17386 
586	4.875	0.06469	1.83889	-0.03735	-0.04003	1.73726	-0.05901	-0.06889	1.54522	0.00197	-0.05633	1.75507	0.07766	-0.09492	1.44780	0.13157	0.02410	1.50051	0.21289	0.16669	1.34388	-0.00062	0.04623	1.82188	0.08924	0.12759	1.46734	0.00677	0.27169	1.19004	0.15646	0.29106	1.16564	0.25170	0.10756	1.45712	0.11809	0.16452	1.18310	0.26277	0.03065	1.18797	0.28264	0.02420	1.30679	0.25994	0.38363	1.14931	0.25665	-0.09109	1.33446	-0.00811	0.41037	1.18828	0.14203	0.02009	1.13646	0.17393 
587	4.883	0.06467	1.83890	-0.03726	-0.04004	1.73726	-0.05894	-0.06889	1.54522	0.00205	-0.05635	1.75506	0.07773	-0.09492	1.44781	0.13165	0.02411	1.50052	0.21296	0.16668	1.34389	-0.00054	0.04621	1.82187	0.08932	0.12758	1.46732	0.00681	0.27169	1.19003	0.15652	0.29106	1.16564	0.25176	0.10756	1.45713	0.11816	0.16452	1.18309	0.26283	0.03065	1.18798	0.28272	0.02421	1.30680	0.26002	0.38363	1.14930	0.25672	-0.09110	1.33447	-0.00802	0.41037	1.18827	0.14209	0.02009	1.13647	0.17400 
588	4.892	0.06464	1.83890	-0.03718	-0.04007	1.73725	-0.05887	-0.06890	1.54521	0.00213	-0.05636	1.75506	0.07781	-0.09492	1.44782	0.13174	0.02411	1.50052	0.21304	0.16666	1.34390	-0.00047	0.04618	1.82186	0.08940	0.12756	1.46730	0.00686	0.27169	1.19003	0.15658	0.29106	1.16564	0.25182	0.10756	1.45714	0.11823	0.16452	1.18310	0.26289	0.03066	1.18799	0.28279	0.02423	1.30680	0.26010	0.38364	1.14930	0.25678	-0.09111	1.33447	-0.00793	0.41036	1.18826	0.14214	0.02009	1.13647	0.17407 
589	4.900	0.06461	1.83890	-0.03709	-0.04009	1.73725	-0.05880	-0.06890	1.54520	0.00222	-0.05638	1.75506	0.07788	-0.09492	1.44782	0.13183	0.02412	1.50052	0.21311	0.16665	1.34390	-0.00040	0.04615	1.82185	0.08948	0.12755	1.46731	0.00694	0.27169	1.19003	0.15665	0.29106	1.16564	0.25189	0.10756	1.45715	0.11830	0.16453	1.18310	0.26297	0.03066	1.18800	0.28287	0.02424	1.30681	0.26019	0.38364	1.14930	0.25684	-0.09112	1.33447	-0.00785	0.41036	1.18826	0.14220	0.02009	1.13647	0.17415 
590	4.908	0.06458	1.83891	-0.03701	-0.04012	1.73725	-0.05873	-0.06891	1.54519	0.00232	-0.05640	1.75506	0.07795	-0.09493	1.44782	0.13192	0.02412	1.50052	0.21319	0.16663	1.34389	-0.00034	0.04612	1.82184	0.08956	0.12754	1.46732	0.00702	0.27168	1.19003	0.15672	0.29105	1.16563	0.25195	0.10755	1.45715	0.11837	0.16453	1.18311	0.26305	0.03067	1.18800	0.28295	0.02425	1.30681	0.26028	0.38364	1.14929	0.25690	-0.09113	1.33447	-0.00776	0.41035	1.18826	0.14226	0.02009	1.13648	0.17423 
591	4.917	0.06455	1.83891	-0.03694	-0.04015	1.73724	-0.05866	-0.06891	1.54517	0.00242	-0.05643	1.75505	0.07801	-0.09493	1.44782	0.13202	0.02412	1.50052	0.21327	0.16661	1.34389	-0.00027	0.04610	1.82183	0.08965	0.12753	1.46734	0.00711	0.27168	1.19003	0.15679	0.29105	1.16563	0.25202	0.10754	1.45715	0.11844	0.16453	1.18312	0.26314	0.03067	1.18801	0.28303	0.02426	1.30680	0.26037	0.38364	1.14928	0.25695	-0.09113	1.33446	-0.00767	0.41034	1.18826	0.14233	0.02009	1.13647	0.17431 
592	4.925	0.06451	1.83891	-0.03686	-0.04018	1.73724	-0.05858	-0.06893	1.54516	0.00251	-0.05647	1.75504	0.07807	-0.09493	1.44782	0.13211	0.02412	1.50052	0.21335	0.16659	1.34388	-0.00022	0.04607	1.82182	0.08974	0.12751	1.46733	0.00718	0.27168	1.19004	0.15687	0.29105	1.16562	0.25209	0.10754	1.45715	0.11851	0.16453	1.18314	0.26325	0.03068	1.18801	0.28312	0.02426	1.30679	0.26047	0.38364	1.14927	0.25701	-0.09113	1.33446	-0.00758	0.41033	1.18827	0.14239	0.02009	1.13647	0.17439 
593	4.933	0.06447	1.83891	-0.03679	-0.04021	1.73724	-0.05850	-0.06894	1.54515	0.00261	-0.05650	1.75503	0.07813	-0.09494	1.44782	0.13220	0.02412	1.50052	0.21343	0.16657	1.34386	-0.00016	0.04604	1.82182	0.08982	0.12749	1.46731	0.00723	0.27168	1.19004	0.15695	0.29104	1.16561	0.25215	0.10753	1.45715	0.11858	0.16454	1.18317	0.26336	0.03068	1.18801	0.28320	0.02426	1.30679	0.26056	0.38364	1.14926	0.25708	-0.09113	1.33444	-0.00749	0.41032	1.18827	0.14245	0.02009	1.13647	0.17447 
594	4.942	0.06443	1.83891	-0.03672	-0.04025	1.73723	-0.05842	-0.06895	1.54513	0.00272	-0.05653	1.75503	0.07821	-0.09495	1.44781	0.13230	0.02412	1.50051	0.21351	0.16655	1.34386	-0.00010	0.04601	1.82182	0.08991	0.12745	1.46729	0.00728	0.27168	1.19004	0.15703	0.29104	1.16560	0.25222	0.10751	1.45715	0.11865	0.16455	1.18321	0.26350	0.03069	1.18801	0.28328	0.02426	1.30679	0.26064	0.38364	1.14925	0.25714	-0.09112	1.33443	-0.00740	0.41030	1.18827	0.14251	0.02008	1.13647	0.17455 
595	4.950	0.06439	1.83891	-0.03665	-0.04029	1.73723	-0.05833	-0.06897	1.54511	0.00282	-0.05655	1.75503	0.07830	-0.09496	1.44781	0.13239	0.02412	1.50051	0.21359	0.16652	1.34385	-0.00004	0.04598	1.82182	0.09000	0.12742	1.46727	0.00733	0.27168	1.19004	0.15712	0.29104	1.16560	0.25229	0.10750	1.45716	0.11872	0.16455	1.18328	0.26365	0.03069	1.18802	0.28336	0.02426	1.30680	0.26071	0.38365	1.14925	0.25721	-0.09110	1.33441	-0.00731	0.41030	1.18827	0.14258	0.02008	1.13646	0.17463 
596	4.958	0.06433	1.83890	-0.03659	-0.04033	1.73722	-0.05824	-0.06899	1.54509	0.00292	-0.05656	1.75503	0.07840	-0.09497	1.44780	0.13248	0.02411	1.50051	0.21367	0.16650	1.34386	0.00003	0.04595	1.82183	0.09008	0.12740	1.46727	0.00740	0.27169	1.19004	0.15721	0.29103	1.16559	0.25237	0.10748	1.45716	0.11879	0.16456	1.18336	0.26383	0.03070	1.18802	0.28344	0.02425	1.30681	0.26078	0.38365	1.14924	0.25729	-0.09108	1.33439	-0.00722	0.41029	1.18827	0.14265	0.02007	1.13646	0.17471 
597	4.967	0.06428	1.83890	-0.03652	-0.04038	1.73722	-0.05815	-0.06902	1.54507	0.00302	-0.05658	1.75503	0.07850	-0.09498	1.44780	0.13257	0.02411	1.50051	0.21375	0.16648	1.34387	0.00010	0.04592	1.82185	0.09017	0.12738	1.46729	0.00749	0.27169	1.19003	0.15730	0.29103	1.16559	0.25244	0.10746	1.45716	0.11887	0.16457	1.18349	0.26406	0.03070	1.18802	0.28352	0.02425	1.30681	0.26086	0.38365	1.14923	0.25736	-0.09105	1.33436	-0.00713	0.41028	1.18827	0.14271	0.02007	1.13646	0.17479 
598	4.975	0.06424	1.83890	-0.03645	-0.04043	1.73722	-0.05805	-0.06904	1.54504	0.00314	-0.05661	1.75502	0.07860	-0.09500	1.44779	0.13267	0.02410	1.50051	0.21383	0.16645	1.34389	0.00018	0.04589	1.82185	0.09026	0.12736	1.46731	0.00759	0.27170	1.19003	0.15738	0.29103	1.16559	0.25251	0.10744	1.45717	0.11894	0.16458	1.18365	0.26433	0.03070	1.18802	0.28360	0.02424	1.30682	0.26093	0.38364	1.14922	0.25744	-0.09102	1.33434	-0.00704	0.41027	1.18827	0.14277	0.02006	1.13645	0.17487 
599	4.983	0.06420	1.83889	-0.03637	-0.04048	1.73722	-0.05796	-0.06905	1.54500	0.00327	-0.05665	1.75502	0.07869	-0.09501	1.44777	0.13276	0.02409	1.50052	0.21392	0.16643	1.34389	0.00025	0.04586	1.82186	0.09035	0.12734	1.46733	0.00768	0.27170	1.19003	0.15746	0.29102	1.16559	0.25258	0.10741	1.45717	0.11902	0.16460	1.18389	0.26468	0.03071	1.18802	0.28368	0.02424	1.30682	0.26100	0.38364	1.14922	0.25752	-0.09100	1.33431	-0.00694	0.41026	1.18827	0.14283	0.02005	1.13645	0.17495 
